<mxfile host="Electron" modified="2023-09-05T12:04:18.568Z" agent="Mozilla/5.0 (Windows NT 10.0; Win64; x64) AppleWebKit/537.36 (KHTML, like Gecko) draw.io/21.6.5 Chrome/114.0.5735.243 Electron/25.3.1 Safari/537.36" etag="0KYbR-sl2of22OS-5DTc" version="21.6.5" type="device">
  <diagram name="Страница 1" id="cKW-T-5nnkgJHS1upnvU">
    <mxGraphModel dx="989" dy="589" grid="1" gridSize="10" guides="0" tooltips="1" connect="1" arrows="1" fold="1" page="1" pageScale="1" pageWidth="827" pageHeight="1169" math="0" shadow="0">
      <root>
        <mxCell id="0" />
        <mxCell id="1" parent="0" />
        <mxCell id="GsknchvEnhREbcNgrHTX-1" value="&lt;font style=&quot;font-size: 14px;&quot;&gt;Adapter method&lt;/font&gt;" style="text;html=1;align=center;verticalAlign=middle;resizable=0;points=[];autosize=1;strokeColor=none;fillColor=none;" vertex="1" parent="1">
          <mxGeometry x="30" y="28" width="120" height="30" as="geometry" />
        </mxCell>
        <mxCell id="GsknchvEnhREbcNgrHTX-3" value="Диаграмма классов паттерна &quot;Adapter&quot;" style="text;html=1;align=center;verticalAlign=middle;resizable=0;points=[];autosize=1;strokeColor=none;fillColor=none;" vertex="1" parent="1">
          <mxGeometry x="20" y="60" width="240" height="30" as="geometry" />
        </mxCell>
        <mxCell id="GsknchvEnhREbcNgrHTX-6" value="Для демонстрации работы шаблона проектирования Adapter, представлю пример, в котором адаптер используется для преобразования интерфейса одного устройства (USB) в интерфейс другого устройства (HDMI)." style="shape=note;size=20;whiteSpace=wrap;html=1;" vertex="1" parent="1">
          <mxGeometry x="40" y="140" width="190" height="170" as="geometry" />
        </mxCell>
        <mxCell id="GsknchvEnhREbcNgrHTX-7" value="&lt;p style=&quot;margin:0px;margin-top:4px;text-align:center;&quot;&gt;&lt;i&gt;&amp;lt;&amp;lt;Interface&amp;gt;&amp;gt;&lt;/i&gt;&lt;br&gt;HDMIInterface&lt;br&gt;&lt;/p&gt;&lt;hr size=&quot;1&quot;&gt;&lt;p style=&quot;margin:0px;margin-left:4px;&quot;&gt;+&amp;nbsp;connectHDMI(): void&lt;br&gt;&lt;/p&gt;&lt;p style=&quot;margin:0px;margin-left:4px;&quot;&gt;&lt;br&gt;&lt;/p&gt;" style="verticalAlign=top;align=left;overflow=fill;fontSize=12;fontFamily=Helvetica;html=1;whiteSpace=wrap;" vertex="1" parent="1">
          <mxGeometry x="400" y="80" width="200" height="80" as="geometry" />
        </mxCell>
        <mxCell id="GsknchvEnhREbcNgrHTX-9" value="&lt;p style=&quot;margin:0px;margin-top:4px;text-align:center;&quot;&gt;&lt;b&gt;Class&amp;nbsp;&lt;/b&gt;&lt;/p&gt;&lt;div style=&quot;text-align: center;&quot;&gt;&lt;span style=&quot;background-color: initial;&quot;&gt;HDMIDevice&lt;/span&gt;&lt;/div&gt;&lt;hr size=&quot;1&quot;&gt;&lt;p style=&quot;margin:0px;margin-left:4px;&quot;&gt;&lt;/p&gt;&amp;nbsp;+ connectHDMI(): void&lt;p style=&quot;margin:0px;margin-left:4px;&quot;&gt;&lt;br&gt;&lt;/p&gt;" style="verticalAlign=top;align=left;overflow=fill;fontSize=12;fontFamily=Helvetica;html=1;whiteSpace=wrap;" vertex="1" parent="1">
          <mxGeometry x="400" y="240" width="200" height="80" as="geometry" />
        </mxCell>
        <mxCell id="GsknchvEnhREbcNgrHTX-10" value="&lt;p style=&quot;margin:0px;margin-top:4px;text-align:center;&quot;&gt;&lt;b&gt;Class&amp;nbsp;&lt;/b&gt;&lt;/p&gt;&lt;div style=&quot;text-align: center;&quot;&gt;USBDevice &lt;br&gt;&lt;/div&gt;&lt;hr size=&quot;1&quot;&gt;&lt;p style=&quot;margin:0px;margin-left:4px;&quot;&gt;&lt;/p&gt;&amp;nbsp;+&amp;nbsp;connectUSB(): void&lt;p style=&quot;margin:0px;margin-left:4px;&quot;&gt;&lt;br&gt;&lt;/p&gt;" style="verticalAlign=top;align=left;overflow=fill;fontSize=12;fontFamily=Helvetica;html=1;whiteSpace=wrap;" vertex="1" parent="1">
          <mxGeometry x="400" y="560" width="200" height="80" as="geometry" />
        </mxCell>
        <mxCell id="GsknchvEnhREbcNgrHTX-12" value="&lt;p style=&quot;margin:0px;margin-top:4px;text-align:center;&quot;&gt;&lt;i&gt;&amp;lt;&amp;lt;Interface&amp;gt;&amp;gt;&lt;/i&gt;&lt;br&gt; USBInterface&lt;br&gt;&lt;/p&gt;&lt;hr size=&quot;1&quot;&gt;&lt;p style=&quot;margin:0px;margin-left:4px;&quot;&gt;&lt;/p&gt;&amp;nbsp;+ connectUSB(): void&lt;p style=&quot;margin:0px;margin-left:4px;&quot;&gt;&lt;br&gt;&lt;/p&gt;" style="verticalAlign=top;align=left;overflow=fill;fontSize=12;fontFamily=Helvetica;html=1;whiteSpace=wrap;" vertex="1" parent="1">
          <mxGeometry x="400" y="400" width="200" height="80" as="geometry" />
        </mxCell>
        <mxCell id="GsknchvEnhREbcNgrHTX-21" value="&lt;p style=&quot;margin:0px;margin-top:4px;text-align:center;&quot;&gt;USBToHDMIAdapter&lt;br&gt;&lt;/p&gt;&lt;hr size=&quot;1&quot;&gt;&lt;p style=&quot;margin:0px;margin-left:4px;&quot;&gt;&lt;/p&gt;&amp;nbsp;- usbDevice: USBInterface&lt;br&gt;&lt;br&gt;&lt;p style=&quot;margin:0px;margin-left:4px;&quot;&gt;+ connectHDMI(): void&lt;br&gt;&lt;/p&gt;" style="verticalAlign=top;align=left;overflow=fill;fontSize=12;fontFamily=Helvetica;html=1;whiteSpace=wrap;" vertex="1" parent="1">
          <mxGeometry x="400" y="720" width="200" height="80" as="geometry" />
        </mxCell>
        <mxCell id="GsknchvEnhREbcNgrHTX-24" value="Use" style="endArrow=open;endSize=12;dashed=1;html=1;rounded=0;entryX=0.473;entryY=0.998;entryDx=0;entryDy=0;entryPerimeter=0;exitX=0.474;exitY=0.029;exitDx=0;exitDy=0;exitPerimeter=0;" edge="1" parent="1" source="GsknchvEnhREbcNgrHTX-9" target="GsknchvEnhREbcNgrHTX-7">
          <mxGeometry width="160" relative="1" as="geometry">
            <mxPoint x="400" y="340" as="sourcePoint" />
            <mxPoint x="560" y="340" as="targetPoint" />
          </mxGeometry>
        </mxCell>
        <mxCell id="GsknchvEnhREbcNgrHTX-25" value="Use" style="endArrow=open;endSize=12;dashed=1;html=1;rounded=0;entryX=0.473;entryY=0.998;entryDx=0;entryDy=0;entryPerimeter=0;exitX=0.474;exitY=0.029;exitDx=0;exitDy=0;exitPerimeter=0;" edge="1" parent="1">
          <mxGeometry width="160" relative="1" as="geometry">
            <mxPoint x="495" y="402.15999999999997" as="sourcePoint" />
            <mxPoint x="495" y="320.15999999999997" as="targetPoint" />
          </mxGeometry>
        </mxCell>
        <mxCell id="GsknchvEnhREbcNgrHTX-26" value="Use" style="endArrow=open;endSize=12;dashed=1;html=1;rounded=0;entryX=0.473;entryY=0.998;entryDx=0;entryDy=0;entryPerimeter=0;exitX=0.474;exitY=0.029;exitDx=0;exitDy=0;exitPerimeter=0;" edge="1" parent="1">
          <mxGeometry width="160" relative="1" as="geometry">
            <mxPoint x="495" y="562" as="sourcePoint" />
            <mxPoint x="495" y="480" as="targetPoint" />
          </mxGeometry>
        </mxCell>
        <mxCell id="GsknchvEnhREbcNgrHTX-27" value="Use" style="endArrow=open;endSize=12;dashed=1;html=1;rounded=0;entryX=0.473;entryY=0.998;entryDx=0;entryDy=0;entryPerimeter=0;exitX=0.474;exitY=0.029;exitDx=0;exitDy=0;exitPerimeter=0;" edge="1" parent="1">
          <mxGeometry width="160" relative="1" as="geometry">
            <mxPoint x="495" y="722" as="sourcePoint" />
            <mxPoint x="495" y="640" as="targetPoint" />
          </mxGeometry>
        </mxCell>
      </root>
    </mxGraphModel>
  </diagram>
</mxfile>